<svg xmlns="http://www.w3.org/2000/svg" xmlns:xlink="http://www.w3.org/1999/xlink" width="1600" zoomAndPan="magnify" viewBox="0 0 1200 225" height="300" preserveAspectRatio="xMidYMid meet" version="1.0"><defs><g/></defs><g fill="#000000" fill-opacity="1"><g transform="translate(-0.000000000000085265, 219.035024)"><g><path d="M 159.546875 0 L 159.546875 -111.515625 L 93.5 -111.515625 L 93.5 0 L 30.3125 0 L 30.3125 -111.515625 L 7.71875 -111.515625 L 7.71875 -133.234375 L 30.015625 -133.234375 L 30.015625 -214.4375 L 93.203125 -214.4375 L 93.203125 -133.234375 L 159.265625 -133.234375 L 159.265625 -214.4375 L 181.28125 -214.4375 L 181.28125 0 Z M 159.546875 0 "/></g></g></g><g fill="#000000" fill-opacity="1"><g transform="translate(188.990916, 219.035024)"><g><path d="M 7.71875 0 L 7.71875 -214.4375 L 71.484375 -214.4375 L 71.484375 0 Z M 7.71875 0 "/></g></g></g><g fill="#000000" fill-opacity="1"><g transform="translate(268.189828, 219.035024)"><g><path d="M 154.390625 -162.125 C 154.390625 -154.875 153.007812 -148.195312 150.25 -142.09375 C 147.488281 -136 143.769531 -130.664062 139.09375 -126.09375 C 134.425781 -121.519531 128.898438 -117.945312 122.515625 -115.375 C 116.128906 -112.800781 109.410156 -111.515625 102.359375 -111.515625 L 64.046875 -111.515625 L 64.046875 0.28125 L 7.71875 0.28125 L 7.71875 -214.4375 L 102.359375 -214.4375 C 109.410156 -214.4375 116.128906 -213.054688 122.515625 -210.296875 C 128.898438 -207.535156 134.425781 -203.769531 139.09375 -199 C 143.769531 -194.238281 147.488281 -188.664062 150.25 -182.28125 C 153.007812 -175.894531 154.390625 -169.175781 154.390625 -162.125 Z M 132.671875 -162.125 C 132.671875 -166.3125 131.859375 -170.265625 130.234375 -173.984375 C 128.617188 -177.703125 126.472656 -180.941406 123.796875 -183.703125 C 121.128906 -186.460938 117.9375 -188.65625 114.21875 -190.28125 C 110.507812 -191.90625 106.554688 -192.71875 102.359375 -192.71875 L 64.046875 -192.71875 L 64.046875 -133.234375 L 102.359375 -133.234375 C 110.929688 -133.234375 118.125 -135.945312 123.9375 -141.375 C 129.757812 -146.8125 132.671875 -153.726562 132.671875 -162.125 Z M 132.671875 -162.125 "/></g></g></g><g fill="#000000" fill-opacity="1"><g transform="translate(430.304551, 219.035024)"><g><path d="M 136.09375 0 L 29.453125 -164.984375 L 29.453125 0 L 7.71875 0 L 7.71875 -214.4375 L 72.90625 -214.4375 L 153.546875 -89.5 L 153.546875 -214.4375 L 175.5625 -214.4375 L 175.5625 0 Z M 136.09375 0 "/></g></g></g><g fill="#000000" fill-opacity="1"><g transform="translate(613.577124, 219.035024)"><g><path d="M 185.5625 -128.375 C 185.5625 -116.175781 183.222656 -104.691406 178.546875 -93.921875 C 173.878906 -83.148438 167.492188 -73.710938 159.390625 -65.609375 C 151.296875 -57.515625 141.863281 -51.128906 131.09375 -46.453125 C 120.320312 -41.785156 108.835938 -39.453125 96.640625 -39.453125 C 84.441406 -39.453125 72.957031 -41.785156 62.1875 -46.453125 C 51.414062 -51.128906 41.976562 -57.515625 33.875 -65.609375 C 25.78125 -73.710938 19.394531 -83.148438 14.71875 -93.921875 C 10.050781 -104.691406 7.71875 -116.175781 7.71875 -128.375 C 7.71875 -140.570312 10.050781 -152.054688 14.71875 -162.828125 C 19.394531 -173.597656 25.734375 -182.984375 33.734375 -190.984375 C 41.742188 -198.992188 51.132812 -205.332031 61.90625 -210 C 72.675781 -214.675781 84.160156 -217.015625 96.359375 -217.015625 C 108.554688 -217.015625 120.085938 -214.675781 130.953125 -210 C 141.816406 -205.332031 151.296875 -198.992188 159.390625 -190.984375 C 167.492188 -182.984375 173.878906 -173.597656 178.546875 -162.828125 C 183.222656 -152.054688 185.5625 -140.570312 185.5625 -128.375 Z M 15.71875 0 L 15.71875 -34.03125 L 177.5625 -34.03125 L 177.5625 0 Z M 163.828125 -128.375 C 163.828125 -137.53125 162.0625 -146.203125 158.53125 -154.390625 C 155.007812 -162.585938 150.195312 -169.6875 144.09375 -175.6875 C 138 -181.695312 130.851562 -186.460938 122.65625 -189.984375 C 114.457031 -193.515625 105.785156 -195.28125 96.640625 -195.28125 C 89.203125 -195.28125 81.671875 -193.945312 74.046875 -191.28125 L 74.046875 -65.1875 C 81.484375 -62.519531 88.921875 -61.1875 96.359375 -61.1875 C 105.503906 -61.1875 114.175781 -62.945312 122.375 -66.46875 C 130.570312 -70 137.765625 -74.8125 143.953125 -80.90625 C 150.148438 -87.007812 155.007812 -94.160156 158.53125 -102.359375 C 162.0625 -110.554688 163.828125 -119.226562 163.828125 -128.375 Z M 163.828125 -128.375 "/></g></g></g><g fill="#000000" fill-opacity="1"><g transform="translate(806.856845, 219.035024)"><g><path d="M 106.65625 -185.84375 C 98.070312 -192.707031 88.15625 -196.140625 76.90625 -196.140625 C 70.625 -196.140625 64.625 -194.898438 58.90625 -192.421875 C 53.1875 -189.941406 48.226562 -186.609375 44.03125 -182.421875 L 104.640625 -111.21875 C 109.597656 -105.125 113.457031 -98.265625 116.21875 -90.640625 C 118.988281 -83.015625 120.375 -75.195312 120.375 -67.1875 C 120.375 -58.039062 118.609375 -49.273438 115.078125 -40.890625 C 111.554688 -32.503906 106.695312 -25.066406 100.5 -18.578125 C 94.300781 -12.097656 86.910156 -6.953125 78.328125 -3.140625 C 69.753906 0.671875 60.515625 2.578125 50.609375 2.578125 C 40.691406 2.578125 31.445312 0.570312 22.875 -3.4375 L 29.15625 -25.15625 C 32.40625 -23.25 35.882812 -21.867188 39.59375 -21.015625 C 43.3125 -20.160156 47.078125 -19.734375 50.890625 -19.734375 C 57.566406 -19.734375 63.765625 -20.921875 69.484375 -23.296875 C 75.203125 -25.679688 80.15625 -29.066406 84.34375 -33.453125 L 23.734375 -104.640625 C 18.585938 -110.742188 14.628906 -117.65625 11.859375 -125.375 C 9.097656 -133.09375 7.71875 -140.765625 7.71875 -148.390625 C 7.71875 -157.347656 9.429688 -166.019531 12.859375 -174.40625 C 16.296875 -182.800781 21.109375 -190.238281 27.296875 -196.71875 C 33.492188 -203.195312 40.785156 -208.390625 49.171875 -212.296875 C 57.566406 -216.203125 66.8125 -218.15625 76.90625 -218.15625 C 93.113281 -218.15625 107.601562 -213.203125 120.375 -203.296875 Z M 106.65625 -185.84375 "/></g></g></g><g fill="#000000" fill-opacity="1"><g transform="translate(934.94754, 219.035024)"><g><path d="M 7.71875 0 L 7.71875 -214.4375 L 71.484375 -214.4375 L 71.484375 0 Z M 7.71875 0 "/></g></g></g><g fill="#000000" fill-opacity="1"><g transform="translate(1014.146472, 219.035024)"><g><path d="M 114.078125 0 L 114.078125 -111.515625 L 50.890625 -111.515625 L 50.890625 0 L 29.15625 0 L 29.15625 -111.515625 L 7.71875 -111.515625 L 7.71875 -133.234375 L 28.875 -133.234375 L 28.875 -142.953125 C 28.875 -153.253906 30.828125 -162.882812 34.734375 -171.84375 C 38.640625 -180.800781 43.976562 -188.660156 50.75 -195.421875 C 57.519531 -202.191406 65.382812 -207.53125 74.34375 -211.4375 C 83.300781 -215.34375 92.925781 -217.296875 103.21875 -217.296875 C 113.507812 -217.296875 123.179688 -215.34375 132.234375 -211.4375 C 141.285156 -207.53125 149.195312 -202.191406 155.96875 -195.421875 C 162.738281 -188.660156 168.125 -180.800781 172.125 -171.84375 C 176.125 -162.882812 178.125 -153.253906 178.125 -142.953125 L 178.125 0 Z M 114.078125 -194.421875 C 112.367188 -194.804688 110.65625 -195.09375 108.9375 -195.28125 C 107.21875 -195.476562 105.40625 -195.578125 103.5 -195.578125 C 96.257812 -195.578125 89.445312 -194.191406 83.0625 -191.421875 C 76.675781 -188.660156 71.050781 -184.894531 66.1875 -180.125 C 61.332031 -175.363281 57.519531 -169.789062 54.75 -163.40625 C 51.988281 -157.019531 50.609375 -150.203125 50.609375 -142.953125 L 50.609375 -133.234375 L 114.078125 -133.234375 Z M 114.078125 -194.421875 "/></g></g></g></svg>